<?xml version="1.0" encoding="UTF-8"?>
<svg version="1.1" xmlns="http://www.w3.org/2000/svg" width="512" height="512">
<path d="M0 0 C168.96 0 337.92 0 512 0 C512 168.96 512 337.92 512 512 C343.04 512 174.08 512 0 512 C0 343.04 0 174.08 0 0 Z " fill="#212121" transform="translate(0,0)"/>
<path d="M0 0 C1.6689062 0.00138269 1.6689062 0.00138269 3.37152767 0.00279331 C4.6434396 0.00141865 5.91535152 0.00004398 7.22580624 -0.00137234 C8.64839863 0.00216728 10.07099079 0.00580209 11.49358273 0.00952244 C12.98139602 0.0098043 14.46920945 0.00964659 15.95702267 0.00907993 C20.00849921 0.00879193 24.05994641 0.01468916 28.1114161 0.02165389 C32.34084918 0.02788691 36.57028285 0.02849119 40.79971981 0.0296793 C48.81432643 0.03279277 56.82891947 0.04100637 64.8435201 0.05102879 C73.96549605 0.06218944 83.08747263 0.06770025 92.2094537 0.07272422 C110.97921991 0.08318897 129.74897347 0.10078871 148.51872921 0.12304783 C147.7705714 3.36448981 146.69688465 5.80674444 145.00701046 8.68554783 C144.4994421 9.55888767 143.99187374 10.43222752 143.46892452 11.3320322 C142.92848507 12.25306736 142.38804562 13.17410252 141.83122921 14.12304783 C137.96799214 20.78005106 134.29438668 27.42146157 130.95232296 34.35351658 C128.68235906 38.73881469 126.01792553 42.86690208 123.35076046 47.01757908 C121.40126597 50.32215929 119.95780942 53.57212854 118.51872921 57.12304783 C117.85872921 57.12304783 117.19872921 57.12304783 116.51872921 57.12304783 C116.18808468 58.31800877 116.18808468 58.31800877 115.85076046 59.53711033 C114.12534505 64.1820703 111.71462464 68.23669652 109.20622921 72.49804783 C104.60212064 80.42394798 100.16001134 88.41859246 95.83122921 96.49804783 C91.80158096 104.01469544 87.68695229 111.43864495 83.14494991 118.65966892 C81.41679266 121.43882793 80.05564814 123.86995076 79.51872921 127.12304783 C78.85872921 127.12304783 78.19872921 127.12304783 77.51872921 127.12304783 C77.25173214 127.83211277 76.98473507 128.54117771 76.70964718 129.27172947 C75.47332386 132.23175818 74.03385245 134.94711342 72.46404171 137.74414158 C71.54969357 139.37996189 71.54969357 139.37996189 70.61687374 141.04882908 C70.29478939 141.62197849 69.97270504 142.19512791 69.64086056 142.78564548 C67.94775206 145.79939312 66.26534318 148.81911165 64.58122921 151.83789158 C64.24068508 152.44768864 63.90014095 153.05748569 63.54927731 153.68576145 C60.22001602 159.64985085 56.92242275 165.63100509 53.64372921 171.62304783 C53.13857784 172.54142429 52.63342648 173.45980076 52.11296749 174.40600681 C51.65132198 175.25106785 51.18967648 176.09612888 50.71404171 176.96679783 C50.31201534 177.70091892 49.90998898 178.43504002 49.49577999 179.1914072 C48.39493097 181.25108669 48.39493097 181.25108669 47.51872921 184.12304783 C46.85872921 184.12304783 46.19872921 184.12304783 45.51872921 184.12304783 C45.25060421 184.80367283 44.98247921 185.48429783 44.70622921 186.18554783 C44.31435421 187.15492283 43.92247921 188.12429783 43.51872921 189.12304783 C43.10622921 190.19554783 42.69372921 191.26804783 42.26872921 192.37304783 C40.66723977 196.09651077 38.47446558 199.27989323 36.19060421 202.61523533 C31.96329933 208.95619265 28.22078092 215.58221975 24.89372921 222.43554783 C20.89428117 230.59484958 16.30539315 238.42826363 11.81169796 246.32226658 C9.02783973 251.21338965 6.29461015 256.13010854 3.58122921 261.06054783 C-0.23765064 267.98618034 -4.2183659 274.80833749 -8.23127079 281.62304783 C-15.67104565 294.26953364 -22.6117471 307.16025347 -29.48127079 320.12304783 C-30.80127079 320.12304783 -32.12127079 320.12304783 -33.48127079 320.12304783 C-33.8488953 319.40761814 -34.21651981 318.69218845 -34.59528446 317.95507908 C-36.28287258 314.67588194 -37.97577674 311.39945702 -39.66877079 308.12304783 C-40.24691532 306.99769627 -40.82505985 305.8723447 -41.42072392 304.71289158 C-43.93794514 299.84910819 -46.45072879 295.04887202 -49.40705204 290.43554783 C-51.48127079 287.12304783 -51.48127079 287.12304783 -51.48127079 285.12304783 C-52.14127079 285.12304783 -52.80127079 285.12304783 -53.48127079 285.12304783 C-53.83189579 284.19492283 -54.18252079 283.26679783 -54.54377079 282.31054783 C-56.45694044 277.72827319 -59.30259753 273.81555583 -62.15314579 269.77148533 C-63.48127079 267.12304783 -63.48127079 267.12304783 -63.42267704 264.72461033 C-62.18662083 261.30878696 -60.4963499 258.24689652 -58.66877079 255.12304783 C-58.27061161 254.42864597 -57.87245243 253.73424412 -57.46222782 253.01879978 C-56.14119394 250.71673748 -54.81110562 248.42003526 -53.48127079 246.12304783 C-51.60209885 242.85459954 -49.72873891 239.5828404 -47.85627079 236.31054783 C-47.35756474 235.44026951 -46.85885868 234.56999119 -46.34504032 233.6733408 C-41.53585705 225.26140167 -36.83646836 216.78974145 -32.14142704 208.31372166 C-27.39857925 199.75695576 -22.60656204 191.22923528 -17.78034306 182.71923923 C-14.65209323 177.20276667 -11.55075676 171.67244871 -8.48127079 166.12304783 C-7.82127079 166.12304783 -7.16127079 166.12304783 -6.48127079 166.12304783 C-6.36138798 165.55763279 -6.24150517 164.99221775 -6.11798954 164.40966892 C-3.86179501 156.30709301 1.36097695 148.74699022 5.51872921 141.49804783 C10.10626235 133.44941106 14.57970346 125.35068781 18.95622921 117.18554783 C23.78995826 108.18294666 28.81702544 99.31640705 34.05950069 90.54516697 C40.56352204 79.57483046 46.42616103 68.370866 52.51872921 57.12304783 C24.13872921 57.12304783 -4.24127079 57.12304783 -33.48127079 57.12304783 C-31.38019435 50.81981852 -29.62208803 46.19235041 -26.16877079 40.81054783 C-23.44814813 36.43304146 -20.88685635 32.09616809 -18.66877079 27.43554783 C-5.53597215 0.27453245 -5.53597215 0.27453245 0 0 Z " fill="#FCFCFC" transform="translate(287.4812707901001,94.87695217132568)"/>
<path d="M0 0 C8.22314358 -0.27869529 16.44430034 -0.49155952 24.6710062 -0.62174606 C28.49176426 -0.68425084 32.30928172 -0.76891003 36.12817383 -0.90527344 C39.81783924 -1.03618981 43.50440168 -1.10750383 47.19621086 -1.13852692 C48.60042151 -1.16061343 50.0044714 -1.20375708 51.40735054 -1.26876068 C55.85013529 -1.46633196 59.77074467 -1.43737661 64 0 C68.41254746 4.67467413 71 9.54117398 71 16 C71.66 16 72.32 16 73 16 C75.43160605 19.36683915 76 20.73350364 76 25 C76.66 25 77.32 25 78 25 C78.2902002 25.5355249 78.58040039 26.0710498 78.87939453 26.62280273 C85.00139172 37.90926619 91.17585634 49.16533837 97.4375 60.375 C98.3049585 61.93238892 98.3049585 61.93238892 99.18994141 63.52124023 C102.01176011 68.56043638 104.87231421 73.50070482 108.13696289 78.26806641 C109 80 109 80 109 84 C109.66 84 110.32 84 111 84 C128.45102828 114.33290997 128.45102828 114.33290997 135 127 C135.66 127 136.32 127 137 127 C139.15137553 123.10849012 141.30179534 119.216454 143.45141602 115.32397461 C144.17935805 114.00612922 144.90753931 112.68841593 145.63598633 111.37084961 C150.47945915 102.60981284 155.27394951 93.8250138 160 85 C160.66 85 161.32 85 162 85 C162.185625 83.824375 162.185625 83.824375 162.375 82.625 C163 80 163 80 165 78 C167.63223267 77.75949097 167.63223267 77.75949097 171.01025391 77.77294922 C172.90198837 77.77317581 172.90198837 77.77317581 174.8319397 77.77340698 C176.21348222 77.78362102 177.59502315 77.79405303 178.9765625 77.8046875 C180.38617757 77.80841712 181.79579523 77.81126433 183.20541382 77.81326294 C186.91759382 77.82090345 190.62961761 77.84055539 194.34173584 77.8626709 C198.12884406 77.88312041 201.9159775 77.89226273 205.703125 77.90234375 C213.13548793 77.923801 220.56772208 77.95794184 228 78 C227.39904705 81.2043511 226.80026773 83.74873541 225.14453125 86.56640625 C224.77191162 87.21158203 224.39929199 87.85675781 224.01538086 88.52148438 C223.61843018 89.19501953 223.22147949 89.86855469 222.8125 90.5625 C218.94608131 97.26357052 215.36576397 104.03088872 212 111 C211.34 111 210.68 111 210 111 C209.70996094 111.92232422 209.70996094 111.92232422 209.4140625 112.86328125 C209.15367187 113.67152344 208.89328125 114.47976562 208.625 115.3125 C208.36976563 116.11300781 208.11453125 116.91351563 207.8515625 117.73828125 C207 120 207 120 205 123 C204.34 123 203.68 123 203 123 C202.78730469 123.77988281 202.57460938 124.55976563 202.35546875 125.36328125 C200.51972323 130.28858119 197.94077369 134.64602338 195.3125 139.1875 C194.13690771 141.24024834 192.9624776 143.29366258 191.7890625 145.34765625 C191.17192383 146.4267627 190.55478516 147.50586914 189.91894531 148.61767578 C187.95143783 152.08559546 186.01234439 155.56775299 184.0859375 159.05859375 C183.7601622 159.64841537 183.4343869 160.238237 183.09873962 160.84593201 C181.52162638 163.70286577 179.94793294 166.5616256 178.37817383 169.42260742 C174.65416186 176.16644895 170.73684062 182.72614241 166.5949707 189.21826172 C165.23894247 191.58326795 164.44757419 193.3416564 164 196 C163.34 196 162.68 196 162 196 C161.75765625 196.66902344 161.5153125 197.33804688 161.265625 198.02734375 C159.69621873 201.71351094 157.74996774 205.09619283 155.75 208.5625 C153.00047615 213.37677098 150.35410399 218.19451655 147.9375 223.1875 C144.73604515 229.7437188 140.91001337 235.84718708 137 242 C132.90448515 240.63482838 132.17874948 238.67663975 130 235 C128.02660755 230.74961626 126.41581373 226.4652587 125 222 C124.34 222 123.68 222 123 222 C122.649375 221.0925 122.29875 220.185 121.9375 219.25 C119.89903706 214.43091528 117.13256269 210.04068833 114.42578125 205.57421875 C113 203 113 203 113 201 C112.34 201 111.68 201 111 201 C110.58492188 199.989375 110.16984375 198.97875 109.7421875 197.9375 C108.11534884 194.14850354 106.17849815 190.57225548 104.125 187 C103.31899336 185.58204094 102.51300487 184.16407158 101.70703125 182.74609375 C101.27213379 181.98409668 100.83723633 181.22209961 100.38916016 180.43701172 C96.16689303 173.02986401 91.98514595 165.59955841 87.79394531 158.17480469 C86.21591726 155.38211596 84.63474769 152.59122929 83.05262756 149.80085754 C81.42744117 146.93170194 79.80798123 144.0593149 78.1875 141.1875 C77.57044189 140.10154541 76.95338379 139.01559082 76.31762695 137.89672852 C75.75261475 136.89311279 75.18760254 135.88949707 74.60546875 134.85546875 C73.84979614 133.51971802 73.84979614 133.51971802 73.07885742 132.15698242 C72 130 72 130 72 128 C71.34 128 70.68 128 70 128 C69.59394531 126.99582031 69.18789062 125.99164063 68.76953125 124.95703125 C67.06344005 120.98278382 64.93705533 117.37352387 62.6875 113.6875 C57.53016828 105.09194714 52.78810632 96.28975556 48.08666992 87.43823242 C44.64661748 80.98050304 41.06877585 74.64172297 37.29174805 68.37426758 C36 66 36 66 36 64 C35.34 64 34.68 64 34 64 C33.01 61.03 32.02 58.06 31 55 C30.34 55 29.68 55 29 55 C28.79391113 54.49460693 28.58782227 53.98921387 28.37548828 53.46850586 C25.41958272 46.50544747 21.7016343 40.07771825 17.875 33.5625 C16.53675041 31.26229683 15.19940842 28.96159034 13.86328125 26.66015625 C13.20924316 25.53496582 12.55520508 24.40977539 11.88134766 23.25048828 C9.23976827 18.68651373 6.63635942 14.10245825 4.0625 9.5 C3.64403809 8.75951416 3.22557617 8.01902832 2.79443359 7.25610352 C0 2.23682923 0 2.23682923 0 0 Z " fill="#FCFCFC" transform="translate(75,96)"/>
</svg>
